<svg width="97" height="61" viewBox="0 0 97 61" fill="none" xmlns="http://www.w3.org/2000/svg">
<defs>
<pattern id="gy6-halftone" width="1.9" height="1.9" patternUnits="userSpaceOnUse">
<circle cx="0.95" cy="0.95" r="0.52" fill="#0F161A"/>
</pattern>
</defs>
<path d="M95.9575 35.0345C87.4343 31.2971 78.1364 28.9726 68.3826 28.3953C68.1243 28.3953 67.866 28.4257 67.6078 28.4408C66.9241 29.1853 66.2404 29.9297 65.5416 30.6438C62.8828 33.3481 60.057 35.8701 57.0488 38.1946C44.0894 48.1914 28.0458 54.3901 10.5742 55.0434C10.5286 55.1801 10.4982 55.332 10.4526 55.4688C10.3767 55.332 10.2855 55.1953 10.2095 55.0434C9.28278 55.0889 8.35602 55.1041 7.42926 55.1041C6.00114 55.1041 4.57302 55.0586 3.16009 54.9978C3.11451 55.0434 3.08413 55.0889 3.03855 55.1345C3.06894 55.0889 3.09932 55.0434 3.12971 54.9978H3.16009C4.63379 53.3722 6.16826 51.8073 7.7635 50.3032C19.4923 39.2733 34.5027 31.6921 51.1692 29.1549C53.8431 28.7447 56.5778 28.4712 59.3429 28.3345C60.6647 21.1635 61.3787 13.3848 61.3787 5.2415C61.3787 4.14762 61.3787 3.08413 61.3332 2.00544C61.3332 1.33696 61.3028 0.683675 61.2724 0.0303862C60.6951 0.0303862 60.1329 0 59.5556 0C57.4134 0 55.2864 0.106351 53.1898 0.334243C30.2944 2.74989 11.273 18.1402 3.58549 39.0302C1.76236 43.9982 0.577325 49.2549 0.136735 54.7395C0.075964 55.4536 0.0303855 56.1828 0 56.9121C0.395012 57.0184 0.790022 57.1248 1.18503 57.2311C1.32177 57.2767 1.44331 57.2919 1.58005 57.3375C4.25397 58.0363 7.06463 58.6289 9.95125 59.115C11.0451 59.3125 12.1238 59.4796 13.2481 59.6316C19.1885 60.4976 25.5086 60.9685 32.0415 60.9685C37.1159 60.9685 42.0536 60.6799 46.7937 60.1481C66.2556 57.9756 82.3296 51.5946 90.7008 43.1019C93.2076 40.5647 95.0155 37.83 96.003 34.9585L95.9727 35.0193L95.9575 35.0345Z" fill="url(#gy6-halftone)"/>
<path d="M95.5625 48.708H92.9645C92.6607 48.708 92.4176 48.9511 92.4176 49.2549V51.5946H84.9276C84.4414 51.5946 84.0464 51.9896 84.0464 52.4758V59.9203C84.0464 60.4064 84.4414 60.8014 84.9276 60.8014H92.372C92.8582 60.8014 93.2532 60.4064 93.2532 59.9203V52.4302H95.5929C95.8967 52.4302 96.1398 52.1871 96.1398 51.8833V49.2853C96.1398 48.9815 95.8967 48.7384 95.5929 48.7384L95.5625 48.708Z" fill="url(#gy6-halftone)"/>
</svg>
